<?xml version="1.0" standalone="no"?>
<!DOCTYPE svg PUBLIC "-//W3C//DTD SVG 20010904//EN"
 "http://www.w3.org/TR/2001/REC-SVG-20010904/DTD/svg10.dtd">
<svg version="1.0" xmlns="http://www.w3.org/2000/svg"
 width="300.000000pt" height="300.000000pt" viewBox="0 0 300.000000 300.000000"
 preserveAspectRatio="xMidYMid meet">
<metadata>
Created by potrace 1.10, written by Peter Selinger 2001-2011
</metadata>
<g transform="translate(0.000000,300.000000) scale(0.100000,-0.100000)"
fill="#000000" stroke="none">
<path d="M130 1890 c0 -5 18 -10 39 -10 70 0 71 -6 71 -316 0 -150 -3 -279 -6
-288 -4 -11 -19 -16 -45 -16 -21 0 -39 -4 -39 -8 0 -4 112 -8 248 -7 l248 1
50 28 c134 73 125 250 -15 309 l-34 15 37 17 c78 37 116 125 79 187 -24 41
-90 75 -173 88 -86 13 -460 13 -460 0z m211 -15 c1 -5 2 -67 3 -137 l1 -128
-26 0 c-24 0 -26 4 -26 40 0 34 3 40 21 41 21 1 21 1 0 7 -16 6 -20 15 -20 52
1 36 5 46 21 52 18 5 18 6 -4 7 -15 1 -21 6 -18 15 3 8 -1 22 -8 33 -8 10 -15
21 -15 24 0 10 70 4 71 -6z m210 -23 c25 -23 33 -38 36 -79 11 -106 -32 -163
-123 -163 l-54 0 0 135 0 135 55 0 c46 0 60 -5 86 -28z m98 2 c60 -30 88 -111
60 -167 -19 -38 -70 -77 -99 -77 l-28 0 29 31 c16 17 29 35 29 40 0 5 15 10
33 10 l32 2 -30 6 c-28 6 -30 9 -31 53 0 43 2 47 25 51 22 3 21 4 -6 6 -18 0
-33 6 -33 12 0 7 -10 20 -22 30 -27 24 -4 26 41 3z m-304 -304 c0 -47 -2 -50
-25 -50 -22 0 -25 4 -26 40 -1 34 2 40 20 41 19 1 18 2 -4 9 -25 8 -24 8 5 9
29 1 30 0 30 -49z m265 41 c0 -5 14 -11 31 -15 17 -3 44 -21 60 -38 l28 -33
-37 -3 c-23 -2 -38 1 -41 9 -7 22 -65 76 -86 82 -13 3 -9 5 13 6 17 0 32 -3
32 -8z m-76 -10 c-2 -2 6 -11 17 -19 28 -19 59 -88 59 -132 0 -56 -20 -111
-50 -142 -25 -25 -36 -28 -89 -28 l-61 0 0 166 0 165 64 -3 c36 -1 63 -4 60
-7z m-191 -168 c-1 -43 -2 -95 -2 -115 -1 -35 -3 -38 -31 -38 -28 0 -29 2 -23
33 3 17 6 37 7 42 0 6 10 13 21 17 19 6 19 6 -1 7 -19 1 -22 7 -20 39 1 27 6
39 21 44 20 6 20 6 0 7 -13 1 -21 8 -22 21 -1 15 4 20 25 20 l27 0 -2 -77z
m388 60 c2 -40 -3 -98 -11 -117 -19 -46 -81 -96 -121 -96 -5 0 6 20 24 44 24
34 39 45 62 47 l30 2 -31 4 c-26 3 -31 8 -27 24 4 12 15 19 32 20 23 2 24 2 4
6 -32 6 -29 31 5 36 27 4 27 4 -3 6 -23 1 -31 6 -32 21 -1 16 4 20 33 20 25 0
34 -4 35 -17z m-81 -43 c0 -11 -7 -20 -15 -20 -8 0 -15 9 -15 20 0 11 7 20 15
20 8 0 15 -9 15 -20z"/>
<path d="M1045 1657 c-38 -15 -107 -58 -102 -63 2 -2 17 1 34 7 17 5 52 9 77
7 l47 -3 -43 -52 c-24 -28 -72 -88 -108 -133 -36 -46 -83 -103 -104 -127 -40
-45 -43 -63 -8 -44 27 14 78 14 104 0 18 -9 26 -6 56 24 l36 36 -30 11 c-16 6
-46 10 -66 8 -21 -2 -38 -1 -38 2 0 3 13 20 30 38 29 32 32 33 97 30 l68 -3 6
-38 c4 -27 19 -51 47 -80 l42 -41 40 39 40 39 -28 12 c-32 13 -75 62 -66 75 3
5 23 18 45 29 21 11 39 22 39 25 0 3 -20 2 -45 -1 l-44 -7 2 109 2 109 -50 2
c-27 1 -64 -3 -80 -10z m58 -139 l-5 -58 -38 0 c-20 0 -39 3 -43 6 -3 4 15 30
41 60 26 29 47 52 48 51 1 -1 -1 -28 -3 -59z m42 -78 c3 -5 2 -16 -2 -24 -11
-20 -38 -3 -30 18 7 18 23 21 32 6z"/>
<path d="M1385 1661 c-3 -2 -5 -42 -5 -88 0 -79 1 -83 23 -83 15 0 26 10 36
32 8 18 36 54 62 80 46 46 51 48 103 48 l56 0 -78 -93 c-155 -185 -247 -298
-250 -308 -2 -5 88 -9 226 -9 l231 0 3 85 c3 79 2 85 -17 85 -14 0 -29 -16
-49 -55 -41 -78 -70 -97 -162 -101 l-75 -3 64 77 c135 163 267 327 267 332 0
6 -429 7 -435 1z m51 -52 c20 23 43 41 52 41 11 0 4 -13 -24 -42 -23 -24 -48
-54 -58 -68 -16 -24 -16 -23 -14 45 1 51 3 58 5 26 l4 -43 35 41z m254 34 c0
-4 -12 -19 -27 -35 -22 -23 -24 -30 -13 -43 11 -13 11 -19 -3 -32 -20 -20 -35
-10 -17 12 7 9 10 18 7 21 -3 3 -64 -67 -137 -155 -72 -89 -136 -161 -142
-161 -12 0 -19 -9 146 190 71 85 138 167 149 183 20 26 37 35 37 20z m14 -39
c-23 -28 -40 -41 -43 -33 -2 7 5 20 16 28 10 9 22 24 26 34 3 9 14 17 22 17
12 0 6 -13 -21 -46z m69 34 c-23 -38 -316 -388 -325 -388 -5 0 -8 4 -6 8 10
25 315 391 326 391 8 1 10 -4 5 -11z m-166 -155 c-21 -22 -32 -11 -17 17 9 16
15 19 23 11 8 -8 7 -16 -6 -28z m-43 -48 c-9 -14 -20 -22 -25 -19 -5 3 -2 16
7 29 9 14 20 22 25 19 5 -3 2 -16 -7 -29z m-34 -31 c0 -15 -22 -44 -31 -39
-11 7 7 45 21 45 6 0 10 -3 10 -6z m239 -78 c1 -36 -3 -67 -9 -71 -6 -4 -10
12 -10 42 0 33 -3 43 -9 33 -6 -8 -7 -26 -4 -41 3 -19 0 -28 -12 -33 -25 -9
-30 0 -11 19 25 25 19 31 -7 7 -36 -34 -44 -26 -10 11 17 17 38 47 47 65 9 17
18 32 20 32 2 0 4 -29 5 -64z m-279 26 c0 -15 -28 -47 -35 -40 -8 8 13 48 25
48 6 0 10 -4 10 -8z m-59 -75 c-11 -12 -23 -18 -26 -15 -9 9 27 48 38 41 5 -3
0 -15 -12 -26z"/>
<path d="M2410 1621 c0 -35 3 -40 31 -50 40 -14 39 -14 39 4 0 10 -11 16 -32
17 -18 1 41 5 132 8 178 5 184 4 197 -48 6 -26 -17 -89 -27 -72 -8 13 -31 10
-42 -5 -15 -20 -7 -27 22 -22 25 5 33 2 47 -19 9 -15 17 -48 18 -74 1 -27 7
-55 14 -64 11 -13 9 -17 -14 -26 -32 -12 -68 -4 -88 18 -8 10 -17 43 -21 74
l-6 57 47 4 c28 2 14 4 -34 4 -57 1 -82 -2 -80 -10 1 -7 13 -14 27 -17 17 -4
26 -13 28 -30 10 -74 23 -102 57 -116 48 -20 88 -18 119 7 31 24 33 49 6 74
-11 10 -20 26 -20 36 0 10 -10 30 -23 45 -23 26 -23 29 -8 69 14 39 13 44 -7
86 -12 24 -37 54 -55 67 -31 20 -44 22 -180 22 l-147 0 0 -39z m330 -6 c0 -3
-72 -5 -160 -5 -133 0 -160 2 -160 14 0 12 23 15 126 15 69 0 128 2 131 5 6 5
63 -21 63 -29z m100 -301 c0 -8 -7 -14 -15 -14 -10 0 -15 10 -15 26 0 22 2 25
15 14 8 -7 15 -19 15 -26z"/>
<path d="M1865 1350 l0 -250 248 0 247 0 0 250 0 250 -247 0 -248 0 0 -250z
m450 179 c4 -11 5 -22 3 -23 -1 -2 -52 0 -111 5 -141 10 -173 1 -253 -73 l-44
-41 0 76 0 76 88 3 c48 2 137 2 199 0 102 -3 113 -5 118 -23z m-141 -65 c4
-11 10 -13 19 -7 16 13 107 25 107 15 0 -5 -12 -19 -26 -33 -57 -52 -166 -180
-160 -186 11 -12 101 38 150 83 26 25 51 42 55 39 3 -4 -20 -31 -52 -61 -86
-80 -179 -101 -194 -43 -5 17 -7 17 -37 -5 -36 -28 -53 -33 -83 -22 -72 24
-16 158 88 210 61 30 124 35 133 10z m146 -239 c0 -51 -4 -66 -17 -73 -16 -8
-174 -9 -340 -4 l-53 2 0 36 c0 31 3 35 18 29 38 -16 50 -16 87 -1 34 15 39
15 66 -1 27 -16 32 -16 82 0 30 10 74 32 98 51 24 19 47 32 52 29 4 -2 7 -33
7 -68z"/>
<path d="M2057 1385 c-92 -99 -102 -114 -89 -127 15 -15 65 24 139 108 62 70
69 87 40 92 -12 2 -42 -22 -90 -73z"/>
<path d="M2570 1535 c0 -30 5 -55 10 -55 6 0 10 20 10 45 0 43 1 45 29 45 16
0 34 -7 41 -15 13 -15 5 -55 -14 -67 -7 -5 -5 -8 5 -8 19 0 29 20 29 59 0 38
-17 51 -67 51 l-43 0 0 -55z"/>
<path d="M2514 1479 c-3 -5 3 -9 13 -10 16 0 16 -1 -2 -10 -18 -8 -18 -8 5 -6
14 1 25 8 25 16 0 16 -32 24 -41 10z"/>
<path d="M2435 1448 c-6 -15 -1 -26 15 -38 28 -21 20 -55 -15 -64 -18 -5 -25
-13 -25 -30 0 -27 24 -53 35 -36 3 5 2 10 -3 10 -17 0 -9 27 12 40 20 12 20
12 7 -6 -12 -15 -11 -15 8 2 27 25 38 91 22 123 -15 27 -48 27 -56 -1z m54
-47 c-1 -20 -3 -27 -6 -16 -14 70 -13 68 -31 53 -15 -12 -16 -11 -3 5 20 25
41 3 40 -42z"/>
<path d="M2562 1397 c-3 -63 6 -77 56 -77 14 0 15 -2 2 -10 -12 -8 -12 -10 -1
-10 27 0 -10 -30 -38 -30 -25 -1 -25 -1 -7 -15 26 -20 49 -19 69 3 26 29 22
71 -8 82 -15 6 -25 17 -25 29 0 27 -10 51 -22 51 -7 0 -9 -18 -5 -46 3 -29 1
-41 -4 -33 -12 20 -11 77 2 85 6 3 34 10 63 14 l51 8 -65 1 -65 1 -3 -53z"/>
<path d="M2730 1352 c23 -4 24 -5 5 -13 -19 -7 -19 -8 1 -8 12 -1 24 6 28 14
4 12 -2 15 -27 14 -28 -2 -29 -2 -7 -7z"/>
<path d="M2742 1303 c2 -10 14 -19 26 -21 l24 -4 -21 21 c-26 26 -34 26 -29 4z"/>
<path d="M2502 1283 c-13 -14 -29 -22 -38 -19 -7 3 -14 1 -14 -4 0 -19 50 -23
75 -6 21 14 24 20 15 36 -6 11 -12 20 -13 19 -1 -1 -12 -12 -25 -26z"/>
</g>
</svg>
